<mxfile host="Electron" agent="Mozilla/5.0 (X11; Linux x86_64) AppleWebKit/537.36 (KHTML, like Gecko) draw.io/24.7.8 Chrome/128.0.6613.84 Electron/32.0.2 Safari/537.36" version="24.7.8">
  <diagram name="Page-1" id="3YDC3mDkHomR2KhHJ-Rz">
    <mxGraphModel dx="1195" dy="756" grid="1" gridSize="10" guides="1" tooltips="1" connect="1" arrows="1" fold="1" page="1" pageScale="1" pageWidth="827" pageHeight="1169" math="0" shadow="0">
      <root>
        <mxCell id="0" />
        <mxCell id="1" parent="0" />
        <mxCell id="jBtKVoiJljGo3PRs-fNY-7" style="edgeStyle=orthogonalEdgeStyle;rounded=0;orthogonalLoop=1;jettySize=auto;html=1;entryX=0;entryY=0.5;entryDx=0;entryDy=0;" edge="1" parent="1" source="jBtKVoiJljGo3PRs-fNY-4" target="jBtKVoiJljGo3PRs-fNY-6">
          <mxGeometry relative="1" as="geometry" />
        </mxCell>
        <mxCell id="jBtKVoiJljGo3PRs-fNY-4" value="" style="ellipse;html=1;shape=startState;" vertex="1" parent="1">
          <mxGeometry x="70" y="80" width="30" height="30" as="geometry" />
        </mxCell>
        <mxCell id="jBtKVoiJljGo3PRs-fNY-9" style="edgeStyle=orthogonalEdgeStyle;rounded=0;orthogonalLoop=1;jettySize=auto;html=1;entryX=0;entryY=0.5;entryDx=0;entryDy=0;" edge="1" parent="1" source="jBtKVoiJljGo3PRs-fNY-6" target="jBtKVoiJljGo3PRs-fNY-8">
          <mxGeometry relative="1" as="geometry" />
        </mxCell>
        <mxCell id="jBtKVoiJljGo3PRs-fNY-6" value="User scans ticket" style="rounded=1;whiteSpace=wrap;html=1;" vertex="1" parent="1">
          <mxGeometry x="170" y="65" width="120" height="60" as="geometry" />
        </mxCell>
        <mxCell id="jBtKVoiJljGo3PRs-fNY-12" style="edgeStyle=orthogonalEdgeStyle;rounded=0;orthogonalLoop=1;jettySize=auto;html=1;entryX=0.5;entryY=0;entryDx=0;entryDy=0;" edge="1" parent="1" source="jBtKVoiJljGo3PRs-fNY-8" target="jBtKVoiJljGo3PRs-fNY-10">
          <mxGeometry relative="1" as="geometry" />
        </mxCell>
        <mxCell id="jBtKVoiJljGo3PRs-fNY-13" style="edgeStyle=orthogonalEdgeStyle;rounded=0;orthogonalLoop=1;jettySize=auto;html=1;entryX=0.5;entryY=0;entryDx=0;entryDy=0;" edge="1" parent="1" source="jBtKVoiJljGo3PRs-fNY-8" target="jBtKVoiJljGo3PRs-fNY-11">
          <mxGeometry relative="1" as="geometry" />
        </mxCell>
        <mxCell id="jBtKVoiJljGo3PRs-fNY-8" value="" style="rhombus;whiteSpace=wrap;html=1;" vertex="1" parent="1">
          <mxGeometry x="382" y="72.5" width="64" height="45" as="geometry" />
        </mxCell>
        <mxCell id="jBtKVoiJljGo3PRs-fNY-25" style="edgeStyle=orthogonalEdgeStyle;rounded=0;orthogonalLoop=1;jettySize=auto;html=1;entryX=0.5;entryY=0;entryDx=0;entryDy=0;" edge="1" parent="1" source="jBtKVoiJljGo3PRs-fNY-10" target="jBtKVoiJljGo3PRs-fNY-24">
          <mxGeometry relative="1" as="geometry" />
        </mxCell>
        <mxCell id="jBtKVoiJljGo3PRs-fNY-10" value="Print &quot;Put your luggage on the scale&quot;" style="rounded=1;whiteSpace=wrap;html=1;" vertex="1" parent="1">
          <mxGeometry x="262" y="230" width="120" height="60" as="geometry" />
        </mxCell>
        <mxCell id="jBtKVoiJljGo3PRs-fNY-28" style="edgeStyle=orthogonalEdgeStyle;rounded=0;orthogonalLoop=1;jettySize=auto;html=1;entryX=0.5;entryY=0;entryDx=0;entryDy=0;" edge="1" parent="1" source="jBtKVoiJljGo3PRs-fNY-11" target="jBtKVoiJljGo3PRs-fNY-27">
          <mxGeometry relative="1" as="geometry" />
        </mxCell>
        <mxCell id="jBtKVoiJljGo3PRs-fNY-11" value="Print &quot;Go to manual luggage check in&quot;" style="rounded=1;whiteSpace=wrap;html=1;" vertex="1" parent="1">
          <mxGeometry x="446" y="230" width="120" height="60" as="geometry" />
        </mxCell>
        <mxCell id="jBtKVoiJljGo3PRs-fNY-14" value="[valid]" style="text;html=1;align=center;verticalAlign=middle;whiteSpace=wrap;rounded=0;" vertex="1" parent="1">
          <mxGeometry x="310" y="140" width="60" height="30" as="geometry" />
        </mxCell>
        <mxCell id="jBtKVoiJljGo3PRs-fNY-15" value="[Invalid]" style="text;html=1;align=center;verticalAlign=middle;whiteSpace=wrap;rounded=0;" vertex="1" parent="1">
          <mxGeometry x="460" y="140" width="60" height="30" as="geometry" />
        </mxCell>
        <mxCell id="jBtKVoiJljGo3PRs-fNY-20" style="edgeStyle=orthogonalEdgeStyle;rounded=0;orthogonalLoop=1;jettySize=auto;html=1;entryX=0.5;entryY=0;entryDx=0;entryDy=0;" edge="1" parent="1" source="jBtKVoiJljGo3PRs-fNY-16" target="jBtKVoiJljGo3PRs-fNY-19">
          <mxGeometry relative="1" as="geometry" />
        </mxCell>
        <mxCell id="jBtKVoiJljGo3PRs-fNY-21" style="edgeStyle=orthogonalEdgeStyle;rounded=0;orthogonalLoop=1;jettySize=auto;html=1;entryX=0.5;entryY=0;entryDx=0;entryDy=0;" edge="1" parent="1" source="jBtKVoiJljGo3PRs-fNY-16" target="jBtKVoiJljGo3PRs-fNY-18">
          <mxGeometry relative="1" as="geometry" />
        </mxCell>
        <mxCell id="jBtKVoiJljGo3PRs-fNY-16" value="" style="rhombus;whiteSpace=wrap;html=1;" vertex="1" parent="1">
          <mxGeometry x="287" y="460" width="70" height="40" as="geometry" />
        </mxCell>
        <mxCell id="jBtKVoiJljGo3PRs-fNY-34" style="edgeStyle=orthogonalEdgeStyle;rounded=0;orthogonalLoop=1;jettySize=auto;html=1;entryX=0;entryY=0.5;entryDx=0;entryDy=0;" edge="1" parent="1" source="jBtKVoiJljGo3PRs-fNY-18" target="jBtKVoiJljGo3PRs-fNY-27">
          <mxGeometry relative="1" as="geometry" />
        </mxCell>
        <mxCell id="jBtKVoiJljGo3PRs-fNY-18" value="&lt;span style=&quot;color: rgb(240, 240, 240); font-family: Helvetica; font-size: 12px; font-style: normal; font-variant-ligatures: normal; font-variant-caps: normal; font-weight: 400; letter-spacing: normal; orphans: 2; text-align: center; text-indent: 0px; text-transform: none; widows: 2; word-spacing: 0px; -webkit-text-stroke-width: 0px; white-space: normal; background-color: rgb(27, 29, 30); text-decoration-thickness: initial; text-decoration-style: initial; text-decoration-color: initial; display: inline !important; float: none;&quot;&gt;Print &quot;Luggage weighs too much&quot;&lt;/span&gt;" style="rounded=1;whiteSpace=wrap;html=1;" vertex="1" parent="1">
          <mxGeometry x="262" y="650" width="120" height="60" as="geometry" />
        </mxCell>
        <mxCell id="jBtKVoiJljGo3PRs-fNY-36" style="edgeStyle=orthogonalEdgeStyle;rounded=0;orthogonalLoop=1;jettySize=auto;html=1;entryX=0.5;entryY=0;entryDx=0;entryDy=0;" edge="1" parent="1" source="jBtKVoiJljGo3PRs-fNY-19" target="jBtKVoiJljGo3PRs-fNY-35">
          <mxGeometry relative="1" as="geometry" />
        </mxCell>
        <mxCell id="jBtKVoiJljGo3PRs-fNY-19" value="Make luggage tag" style="rounded=1;whiteSpace=wrap;html=1;" vertex="1" parent="1">
          <mxGeometry x="100" y="650" width="120" height="60" as="geometry" />
        </mxCell>
        <mxCell id="jBtKVoiJljGo3PRs-fNY-22" value="[weight &amp;lt; maxweight]" style="text;html=1;align=center;verticalAlign=middle;whiteSpace=wrap;rounded=0;" vertex="1" parent="1">
          <mxGeometry x="80" y="530" width="70" height="30" as="geometry" />
        </mxCell>
        <mxCell id="jBtKVoiJljGo3PRs-fNY-23" value="[weight &amp;gt; maxweight]" style="text;html=1;align=center;verticalAlign=middle;whiteSpace=wrap;rounded=0;" vertex="1" parent="1">
          <mxGeometry x="330" y="530" width="60" height="30" as="geometry" />
        </mxCell>
        <mxCell id="jBtKVoiJljGo3PRs-fNY-26" style="edgeStyle=orthogonalEdgeStyle;rounded=0;orthogonalLoop=1;jettySize=auto;html=1;entryX=0.5;entryY=0;entryDx=0;entryDy=0;" edge="1" parent="1" source="jBtKVoiJljGo3PRs-fNY-24" target="jBtKVoiJljGo3PRs-fNY-16">
          <mxGeometry relative="1" as="geometry" />
        </mxCell>
        <mxCell id="jBtKVoiJljGo3PRs-fNY-24" value="User weighs luggage" style="rounded=1;whiteSpace=wrap;html=1;" vertex="1" parent="1">
          <mxGeometry x="262" y="350" width="120" height="60" as="geometry" />
        </mxCell>
        <mxCell id="jBtKVoiJljGo3PRs-fNY-43" style="edgeStyle=orthogonalEdgeStyle;rounded=0;orthogonalLoop=1;jettySize=auto;html=1;" edge="1" parent="1" source="jBtKVoiJljGo3PRs-fNY-27" target="jBtKVoiJljGo3PRs-fNY-42">
          <mxGeometry relative="1" as="geometry" />
        </mxCell>
        <mxCell id="jBtKVoiJljGo3PRs-fNY-27" value="User goes to manned counter" style="rounded=1;whiteSpace=wrap;html=1;" vertex="1" parent="1">
          <mxGeometry x="446" y="810" width="120" height="60" as="geometry" />
        </mxCell>
        <mxCell id="jBtKVoiJljGo3PRs-fNY-29" value="" style="ellipse;html=1;shape=endState;" vertex="1" parent="1">
          <mxGeometry x="235" y="1090" width="30" height="30" as="geometry" />
        </mxCell>
        <mxCell id="jBtKVoiJljGo3PRs-fNY-40" style="edgeStyle=orthogonalEdgeStyle;rounded=0;orthogonalLoop=1;jettySize=auto;html=1;entryX=0;entryY=0.5;entryDx=0;entryDy=0;" edge="1" parent="1" source="jBtKVoiJljGo3PRs-fNY-35" target="jBtKVoiJljGo3PRs-fNY-39">
          <mxGeometry relative="1" as="geometry" />
        </mxCell>
        <mxCell id="jBtKVoiJljGo3PRs-fNY-35" value="User attaches tag" style="rounded=1;whiteSpace=wrap;html=1;" vertex="1" parent="1">
          <mxGeometry x="100" y="780" width="120" height="60" as="geometry" />
        </mxCell>
        <mxCell id="jBtKVoiJljGo3PRs-fNY-45" style="edgeStyle=orthogonalEdgeStyle;rounded=0;orthogonalLoop=1;jettySize=auto;html=1;entryX=0.5;entryY=0;entryDx=0;entryDy=0;" edge="1" parent="1" source="jBtKVoiJljGo3PRs-fNY-39" target="jBtKVoiJljGo3PRs-fNY-29">
          <mxGeometry relative="1" as="geometry" />
        </mxCell>
        <mxCell id="jBtKVoiJljGo3PRs-fNY-39" value="Turn in luggage" style="rounded=1;whiteSpace=wrap;html=1;" vertex="1" parent="1">
          <mxGeometry x="190" y="960" width="120" height="60" as="geometry" />
        </mxCell>
        <mxCell id="jBtKVoiJljGo3PRs-fNY-44" style="edgeStyle=orthogonalEdgeStyle;rounded=0;orthogonalLoop=1;jettySize=auto;html=1;entryX=1;entryY=0.5;entryDx=0;entryDy=0;" edge="1" parent="1" source="jBtKVoiJljGo3PRs-fNY-42" target="jBtKVoiJljGo3PRs-fNY-39">
          <mxGeometry relative="1" as="geometry" />
        </mxCell>
        <mxCell id="jBtKVoiJljGo3PRs-fNY-42" value="Staff weighs luggage" style="rounded=1;whiteSpace=wrap;html=1;" vertex="1" parent="1">
          <mxGeometry x="566" y="930" width="120" height="60" as="geometry" />
        </mxCell>
      </root>
    </mxGraphModel>
  </diagram>
</mxfile>
